<svg width="128" height="128" viewBox="0 0 128 128" fill="none" xmlns="http://www.w3.org/2000/svg">
<path d="M96 4H32C16.536 4 4 16.536 4 32V96C4 111.464 16.536 124 32 124H96C111.464 124 124 111.464 124 96V32C124 16.536 111.464 4 96 4Z" fill="url(#paint0_linear_1_3)"/>
<path d="M96 4H32C16.536 4 4 16.536 4 32V96C4 111.464 16.536 124 32 124H96C111.464 124 124 111.464 124 96V32C124 16.536 111.464 4 96 4Z" stroke="white" stroke-opacity="0.15" stroke-width="2"/>
<path d="M15 41.9839C15 32.8387 22.8529 25 32.0147 25H86.9853C96.1471 25 104 32.8387 104 41.9839V73.3387C104 82.4839 96.1471 90.3226 86.9853 90.3226H51.6471L33.3235 106L37.25 90.3226H32.0147C22.8529 90.3226 15 82.4839 15 73.3387V41.9839Z" fill="url(#paint1_linear_1_3)" stroke="white" stroke-opacity="0.3"/>
<path d="M44 60.0612C44 52.8776 49.8585 47 57.0189 47H99.9811C107.142 47 113 52.8776 113 60.0612V86.1837C113 93.3673 107.142 99.2449 99.9811 99.2449H77.8491L64.8302 111L67.434 99.2449H57.0189C49.8585 99.2449 44 93.3673 44 86.1837V60.0612Z" fill="white" fill-opacity="0.25" stroke="white" stroke-opacity="0.5" stroke-width="2"/>
<path d="M67.4109 70.5761C70.0224 62.696 73.3557 55.0342 75.6949 47.0832C75.7968 46.6591 75.6942 46.4208 75.2066 46.3134C69.2796 45.1709 63.4555 43.2782 57.4407 42.7108C56.3267 49.3144 54.8591 55.8162 53.3805 62.3392C52.041 66.8566 50.7995 73.4786 45.3113 74.4531C42.7114 74.8359 40.5531 73.0513 40.3436 70.4324C40.3744 66.349 43.797 62.2978 47.5161 63.2521C48.2099 63.4681 48.8784 63.7647 49.6449 64.0584C51.6807 56.7783 53.0431 49.221 54.4076 41.7792C54.9389 38.651 58.6117 39.5965 60.8476 39.9329C66.0355 41.049 71.2422 42.107 76.3848 43.4165C79.7527 44.041 78.8859 47.8221 78.1128 50.189C76.8885 53.7372 75.5224 57.2364 74.2442 60.7665C72.3757 65.9071 70.7564 71.1459 68.4178 76.1019C68.1542 76.686 67.7434 77.2174 67.3345 77.7196C64.3703 81.6695 57.7496 79.3274 57.8533 74.3767C57.872 69.8559 64.0529 68.0664 67.4109 70.5761Z" fill="#7A7CF3"/>
<path d="M46.004 49.6941C42.2751 48.4012 39.014 46.0587 35.5114 44.2682C34.3812 43.7588 33.0259 42.6342 33.7857 41.4127C35.0839 39.2841 38.3485 42.5946 39.9609 43.2318C42.0227 44.3959 44.1035 45.526 46.1755 46.672C47.9287 47.3255 48.0956 49.3973 46.004 49.6941Z" fill="#FBBF24"/>
<path d="M85.9425 77.5345C85.3433 77.5607 84.8917 77.1972 84.4534 76.7959C82.3637 74.9299 80.3722 72.9466 78.1905 71.1892C76.6372 69.9945 78.2129 67.73 79.8508 68.7694C80.5789 69.2341 81.2706 69.7682 81.9259 70.3326C83.5313 71.7152 85.1077 73.1314 86.6931 74.5373C87.1281 74.9231 87.4677 75.3638 87.4877 75.9838C87.5174 76.9085 86.9114 77.5387 85.9425 77.5345Z" fill="#FBBF24"/>
<path d="M40.5973 55.9058C41.2265 55.9559 41.6773 56.2284 41.9203 56.7884C42.985 59.0918 37.1809 60.1105 35.6905 60.8457C33.4579 61.6209 32.5622 58.5517 34.6325 57.8809C36.6232 57.2343 38.5813 56.4704 40.5973 55.9058Z" fill="#FBBF24"/>
<path d="M71.8013 81.9975C71.6623 81.0432 71.5133 80.0903 71.3866 79.1344C71.0196 77.0889 73.8739 76.395 74.3727 78.3602C74.6838 79.7889 74.9687 81.2274 75.1691 82.675C75.3411 85.3676 71.6013 85.4636 71.7112 82.0098C71.7413 82.0057 71.7713 82.0015 71.8013 81.9975Z" fill="#FBBF24"/>
<path d="M48.4942 32.2737C49.0153 32.2858 49.5158 32.6189 49.7916 33.1923C50.4489 34.5591 51.0861 35.9376 51.6728 37.3359C52.0134 38.1475 51.7244 38.8963 51.0606 39.2362C50.4168 39.5659 49.6114 39.3953 49.1927 38.6624C48.3919 37.2606 47.625 35.8304 46.9751 34.3542C46.5189 33.3179 47.2901 32.2643 48.4942 32.2737Z" fill="#FBBF24"/>
<path d="M85.0114 56.1579C87.4637 56.0167 87.7636 58.9912 85.5747 59.3734C84.7023 59.5008 83.8235 59.5996 82.944 59.6615C80.8813 59.8741 80.463 56.9395 82.4918 56.5701C83.418 56.3741 84.3621 56.2614 85.0114 56.1579Z" fill="#FBBF24"/>
<defs>
<linearGradient id="paint0_linear_1_3" x1="4" y1="4" x2="12004" y2="12004" gradientUnits="userSpaceOnUse">
<stop stop-color="#6366F1"/>
<stop offset="1" stop-color="#8B5CF6"/>
</linearGradient>
<linearGradient id="paint1_linear_1_3" x1="15" y1="25" x2="8079.2" y2="8885.67" gradientUnits="userSpaceOnUse">
<stop stop-color="white" stop-opacity="0.95"/>
<stop offset="1" stop-color="#F0EEFF" stop-opacity="0.95"/>
</linearGradient>
</defs>
</svg>
